<?xml version="1.0" encoding="utf-8"?>

<!DOCTYPE svg PUBLIC "-//W3C//DTD SVG 1.1//EN" "http://www.w3.org/Graphics/SVG/1.1/DTD/svg11.dtd">
<svg version="1.1" id="Layer_1" xmlns="http://www.w3.org/2000/svg" xmlns:xlink="http://www.w3.org/1999/xlink" x="0px" y="0px"
	 viewBox="0 0 1711.746 1669.738" enable-background="new 0 0 1711.746 1669.738" xml:space="preserve">
<path d="M1656.776,271.622c-2.925-2.221-6.664-2.733-9.788-4.551c-0.186-0.941-1.338-0.915-1.991-1.255
	c-3.553-0.89-6.376-3.566-10.038-4.097c-0.755-0.659-1.504-1.319-2.215-1.991c1.69-1.216,4.692-1.888,4.103-4.596
	c0.102-0.224,0.307-0.672,0.403-0.896c-0.275-1.338-0.109-2.842-0.922-4.001c-0.141-0.819-0.218-1.639-0.301-2.452
	c0.966-0.077,1.946-0.179,2.951-0.307c2.017-0.986,4.27-1.792,5.819-3.495c2.619-11.6-17.777-18.219-24.485-18.244
	c-0.429-0.365-0.832-0.73-1.216-1.095c-0.224,0.198-0.679,0.602-0.909,0.807c-1.357-1.152-2.849-2.132-4.436-2.9
	c0.026-2.209,2.221-2.989,3.374-4.532c0.205-0.064,0.621-0.179,0.835-0.24c8.959-10.426,12.478-46.258,10.757-46.868
	c-22.146-7.844-9.557-45.696-10.114-55.469c-1.408-0.378-2.785-0.858-3.828-1.882c-1.875,1.811-4.133,3.404-5.056,5.943
	c-1.57,4.32-11.012,7.194-13.502,5.49c-0.704,0.295-1.383,0.602-2.042,0.915c-1.427-1.978-3.463-3.521-4.731-5.672
	c-5.759-9.775-0.984-25.163,0.444-35.375c-0.544,0.093-1.087,0.191-1.63,0.288c-0.868-7.459,3.506-14.4,3.085-21.547
	c-0.63-10.716-11.203-10.371-11.271-9.147c-0.045,0.807,0.288,1.882-0.787,2.093c-0.915-0.429-1.568,0.474-2.205,0.915
	c-7.329,0.278-10.439,13.361-12.608,18.442c0.37,0.483,0.741,0.965,1.111,1.448c-1.449,6.18-2.899,12.36-4.348,18.539
	c0.122,0.329,0.244,0.659,0.365,0.989c-2.474,4.599-3.295,12.083-8.723,14.022c-0.501-0.693-1.509-2.12-2.437-2.276
	c0.753-0.177,1.506-0.353,2.258-0.53c-7.452,1.746-11.951-57.772-13.178-59.822c-2.15-3.584-11.256-14.502-15.947-10.19
	c-1.504,1.383-2.599,3.188-2.714,5.256c-0.211,0.339-0.627,1.024-0.839,1.363c-0.647,3.982-1.248,8.015-1.319,12.054
	c-1.312,2.893-1.011,6.331-1.767,9.423l-0.461-0.128c0.07,0.359,0.198,1.082,0.269,1.44c-0.537,2.635-2.046,5.117-1.685,7.873
	c0.832,6.344-7.747,23.016-16.188,19.128c-19.534-10.69-2.713-20.828-13.269-47.116c-0.848-2.111-6.471-18.475-10.205-10.42
	c-0.57,0.525-1.184,1.088-1.191,1.914c-0.23,4.283-3.86,8.072-2.522,12.464c-0.557,0.28-6.451,29.376-7.426,31.354l-0.384,0.435
	c-0.787,0.211-1.556,0.429-2.298,0.647c-0.967-0.186-1.895-0.378-2.823-0.558c-2.012-3.84-3.716-8.131-5.401-12.2
	c0.871-0.287,1.742-0.573,2.612-0.86c-11.862-18.054-10.785-21.777-15.992-21.905c-3.402-0.083-9.114,5.933-10.339,9.028
	c-0.25,0.147-0.749,0.435-0.999,0.576c-0.563,2.247-1.556,4.334-2.753,6.299c-0.909,1.159-0.026,2.541-0.16,3.822
	c0.07,0.813-0.634,2.305,0.621,2.516c1.325-0.09,1.376-1.876,1.94-2.81c-0.91,3.25,0.029,15.835-0.397,19.217
	c-2.637,0.909-5.038-0.973-7.394-1.863c-2.055-1.223-4.59-1.556-6.826-2.434c-5.866-5.179-14.593,1.735-19.669,4.504
	c1.922,32.548,4.215,28.078,5.191,35.269c0.045,2.452,2.285,4.033,3.591,5.896c0.141,1.146-0.474,4.417,1.434,3.348
	c1.198,3.576,3.271,9.974,10.614,13.609c0.422,0.503,6.496,5.877,7.803,6.344l0.109,0.442c1.978,1.466,3.802,3.13,5.761,4.628
	c0.026,0.474,0.083,1.421,0.109,1.888c-0.813,0.659-1.594,1.344-2.337,2.055c-0.262-0.192-0.787-0.576-1.058-0.766
	c-0.638,0.843-1.242,1.657-1.968,2.419c1.062-1.115-12.335,1.42-13.178,1.748c-6.468,2.513-13.097,3.929-19.912,5.151
	c-87.019,15.599-125.749,52.476-227.995,164.146c-11.612,12.682-12.238,22.362-44.383,56.248
	c-32.26,34.006-27.764,28.427-55.708,29.178c-8.662,0.233-16.702-1.666-25.287-0.083c-19.411,3.579-38.52,12.922-57.028,19.719
	c-112.689,41.381-108.097,55.655-137.687,48.217c-23.095-5.805-48.765,0.897-72.102,2.165c0,0-28.6-1.494-92.124-3.204
	c-123.211-14.972-85.098-7.748-113.414-21.571c-9.241-4.511-18.618-8.035-27.681-12.979c1.039,0.43,2.079,0.86,3.118,1.29
	c-26.322-22.609-22.384-26.8-33.061-31.25c-5.234-2.182-8.788-15.239-9.767-20.127c-1.703-8.501-0.448-14.893-6.682-21.925
	c3.016-2.876,3.184,1.032-18.133-35.795c0.015,1.791,0.03,3.581,0.045,5.372c-0.746-0.338-1.492-0.677-2.237-1.015
	c8.13-1.822-47.249-71.573-58.652-86.698c-0.222,0.788-0.443,1.576-0.665,2.364c-2.268-1.254-2.818-4.777-1.04-6.662
	c-42.16-33.545-43.015-44.184-90.346-69.663c-0.382-0.53-7.546-8.552-7.546-8.218c-0.957,7.876,16.439,61.399,14.331,78.544
	c-0.378,2.733-0.32,5.486-0.102,8.232l-0.358,0.839c-1.453-0.519-2.906-1.018-4.449-1.082c-2.33-1.472-3.995-3.751-6.152-5.422
	c-5.691-10.839-28.808-23.026-29.808-23.683c-47.542-31.243-69.15-44.728-93.203-55.755c0.066,1.165,0.132,2.33,0.198,3.495
	c-1.812-0.421-3.625-0.841-5.437-1.262c0.868-0.107,1.736-0.214,2.604-0.32c-22.886,2.815-41.554-17.13-98.916-6.836
	c7.306,4.413,14.612,8.826,21.917,13.239c-1.84,0.299-3.55,1.329-4.676,2.814c-10.169-0.402-21.405-2.254-31.517-1.253
	c-3.779,0.374-18.058,3.79-18.058,9.119c3.205,6.869,2.766,4.591,5.273,8.261c-0.55,0.481-1.741,1.605-2.208,1.895
	c0.885,1.008,3.469,1.637,2.985-0.778c2.201-0.22,4.438,1.39,4.927,3.547c-1.189-0.675-2.378-1.351-3.566-2.026
	c-0.27,0.523-0.54,1.046-0.811,1.569c7.841,2.335,10.232,7.33,16.867,16.642c0.823,1.156,1.68,2.411,1.692,3.829
	c0.061,7.404-10.101,2.325-13.374,1.936c-6.601-0.785-14.155,1.525-20.313,3.677c6.408-0.752,9.009,5.84,6.055,9.725
	c-1.467,1.929-6.328-0.813-5.111,3.99c0.875-0.148,1.947-0.198,2.874-0.286c-12.041,9.916-18.369,26.036-14.348,41.433
	c-0.558-0.2-1.116-0.401-1.674-0.601c0.093,6.216-1.747,17.368,10.105,29.277c0.038,1.94,2.068,3.009,2.919,4.615
	c0.442,0,1.332,0,1.773-0.006c0.922,0.986,2.279,1.357,3.514,1.792c0.16,0.173,0.486,0.525,0.647,0.698
	c2.33-0.032,4.731,0.358,7.01-0.243c0.557,0.839,1.242,0.954,2.055,0.346c0.282,0.519,0.634,0.999,1.037,1.434
	c0.698-0.282,1.383-0.845,2.176-0.627c0.301,1.959-0.211,3.886-0.403,5.832c-1.652,0.461-1.709,1.997-1.6,3.438
	c0.851,0.358,1.69,0.743,2.535,1.127c1.243,3.129-1.97,6.633-0.992,10.031c-0.634,0.371-1.101,0.89-1.408,1.549
	c-1.197,0.262-2.369,0.64-3.521,1.063c-0.077-0.23-0.23-0.679-0.307-0.903c-0.794-0.25-1.581-0.506-2.369-0.749
	c-0.186,1.312-0.422,2.625-0.73,3.924c-1.421-1.095-3.182-1.824-4.974-1.255c-0.083,0.973-0.192,1.94-0.307,2.913
	c-0.666-0.64-1.332-1.274-2.023-1.882c-0.294,1.53,0.621,2.733,1.319,3.994c0.23,1.178,0.192,2.394,0.237,3.598l0.563-0.026
	c0,3.796,0.058,7.624,1.069,11.311c-0.294,1.229,0.294,2.663,1.415,3.239c0.022,1.612,3.351,8.184,6.107,9.794
	c1.338,0.691,1.62,2.311,2.605,3.354c2.996,4.871,8.007,8.424,9.992,13.915c1.111,3.075-9.247,9.344-2.651,13.515
	c-11.152,32.562-7.344,28.772,9.296,62.978c3.76,7.573,5.934,5.512,12.688,19.665c0.455,0.647,0.864,1.37,1.536,1.837
	c1.159,3.886,3.495,7.272,5.179,10.934c1.908,4.302,6.241,6.638,9.967,9.135c0.659,1.556,2.369,2.228,3.681,3.13
	c1.299,1.402,2.765,2.657,4.372,3.706c0.529,1,11.293,14.045,14.538,15.485c13.506,13.285,10.315,11.727,12.656,15.319
	c-0.73,1.485,0.903,2.068,1.805,2.861c0.134,0.666-0.141,1.293-0.506,1.85c0.064-0.493,0.192-1.472,0.256-1.959
	c-1.876,0.026-1.472,2.202-1.895,3.489c1.005,0,2.01-0.006,3.015,0.019c-0.109,0.391-0.326,1.178-0.435,1.568
	c-1.421-1.799-2.989,1.632-0.653,1.229c1.011,0.679,1.895,1.511,2.778,2.356c-0.058,1.466,0.224,3.386-1.53,3.995
	c-1.095-1.645-3.021-2.554-4.833-1.376c0.359-0.627,0.256-1.396,0.359-2.074c-0.973-0.442-1.927-0.935-2.868-1.427
	c0.39-0.634,0.896-1.172,1.376-1.722c-0.813-0.954-1.703-1.863-2.887-2.33c-0.25,1.21-0.448,2.458-1.005,3.578
	c0.186,0.07,0.563,0.211,0.749,0.282c-0.48,0.794-0.967,1.588-1.44,2.394c-0.813-0.57-1.613-1.146-2.413-1.722
	c-0.326,0.218-0.659,0.442-0.986,0.679c0.986,1.05,1.946,2.132,2.977,3.15c-0.192,0.634-0.397,1.274-0.595,1.914
	c0.275,0.314,0.832,0.935,1.107,1.248c-0.397,0.583-0.851,1.12-1.363,1.607c-15.699,2.87-25.92-8.597-16.573,6.542
	c9.167,12.325,9.123,33.353,19.236,45.623c3.047,3.63,6.344,7.131,8.546,11.375c0.421,6.209,7.672,5.46,19.134,24.326
	c-1.159,0.051-2.317,0.09-3.47,0.134c-1.562-0.583-3.207-0.999-4.878-0.979c-1.453,1.114-0.307,3.143-0.256,4.654
	c-1.171-0.179-2.349-0.339-3.527-0.467c0.416,0.378,0.839,0.749,1.28,1.114c-0.474,0.474-0.941,0.973-1.408,1.466
	c2.81,0.205,4.308,3.508,7.17,3.137l-0.205,0.467l0.634-0.09c0.435,0.48,0.871,0.973,1.312,1.466
	c-3.41,0.7-5.842-1.735-6.088,10.607c1.607,1.095,3.297,2.1,5.166,2.682c0.358,0.544,0.711,1.107,1.05,1.684
	c-3.528,1.544-3.21,0.006-6.465,4.859c-4.22,6.83,1.294,7.042,3.201,9.673c1.178,1.338,1.492,4.033,3.822,3.636
	c0.947,0.429,1.927,0.787,2.881,1.216c0.475,1,1.045,11.37,19.8,17.322c8.435,3.07,5.442,3.081,9.986,1.498
	c0.807,0.461,1.607,0.935,2.407,1.421l0.23,0.422l0.32-0.198c4.783,6.893,11.661,4.325,14.749,5.64
	c1.357,0.442,2.599,1.248,4.027,1.453c1.063,1.498,2.388,2.823,3.31,4.436c-9.488,2.123-11.134-1.24-16.401,1.101
	c-4.141-0.432-7.321,10.293-4.846,14.006v1.754c-0.819,0.448-1.588,0.986-2.394,1.46c-1.511-0.006-3.002-0.211-4.5-0.339
	c-1.434-0.57-2.945-0.858-4.468-0.979c-0.198,1.485-0.262,2.983-0.262,4.487c-4.504-0.246-3.907-3.722-8.027-0.512
	c1.37,1.127,2.765,2.234,4.27,3.194c-0.134-0.755-0.269-1.498-0.397-2.228c1.319,0.646,2.439,1.632,2.016,3.252
	c0.487-0.583,0.973-1.172,1.466-1.735c0.378,0.73,0.73,1.46,1.088,2.215c1.101,0.326,2.215,0.647,3.322,0.973
	c0.006,0.621,0.006,1.255,0.019,1.895c1.018-0.307,1.812-1.011,2.573-1.709c0.768,0.954,0.064,2.055-0.205,3.073
	c-2.545,1.124-25.214-9.639-11.683,8.123c-1.005,0.262-2.023,0.506-3.041,0.736c1.312,1.338,2.509,2.791,3.841,4.122
	c1.44-0.134,2.765,0.455,4.097,0.896c0.839,0.973,1.965,1.869,2.176,3.226c0.326,1.274,0.307,2.701,1.133,3.815
	c2.714,2.42,6.401,2.996,9.519,4.699c0.57,0.845,1.165,1.684,1.812,2.503c-1.363-0.051-2.689-0.378-4.007-0.698
	c-0.019,0.422-0.07,1.261-0.096,1.677c0.378,0.551,0.755,1.107,1.127,1.677c-2.016,0.006-3.873-0.8-5.729-1.472
	c-1.671-1.556-4.033-1.869-6.216-1.876c-2.671,6.757,0.198,7.512,3.374,9.858c0.051,0.679,0.102,1.376,0.16,2.08
	c-3.943,1.069-8.047-0.09-12.054,0.384l0.39,0.365c-1.6,1.043-1.581,3.348-1.018,4.968c2.791,1.984,5.396,4.238,8.488,5.742
	c1.854,2.853,4.427,9.906,19.704,11.836c1.011,0.134,2.061,0.205,3.073-0.019c1.952,1.357,4.116-2.1,6.126-0.09
	c-1.191,1.133-2.887,1.235-4.27,2.016c1.389,0.115,2.797,0.147,4.187,0.32c2.01,0.218,3.706,1.581,5.761,1.62
	c1.312,0.461,2.561,1.076,3.841,1.626c1.504,1.792,3.77,2.612,5.64,3.943c33.855,20.716,28.485,9.347,54.726,22.239
	c6.613,3.249,13.065,6.871,19.626,10.177c3.41,1.719,3.484,5.197,1.856,7.683c1.253,0.552,2.534,0.998,3.913,1.055
	c0.019-0.397,0.058-1.184,0.077-1.581c0.339,0.55,0.698,1.107,1.069,1.664c0.826,0.442,1.658,0.883,2.49,1.344
	c0.41-0.301,1.223-0.896,1.632-1.197c0.237,0.07,0.704,0.211,0.941,0.282c0.026,0.397,0.07,1.191,0.096,1.588
	c1.876,0.403,3.93,0.307,5.377,1.799c1.421-0.179,2.842-0.346,4.276-0.429c3.761,3.044,7.044,14.251,3.822,14.474
	c-1.261-0.352-2.522-0.736-3.835-0.755c-1.634-0.82-12.553-2.032-16.887-1.088c-1.236-0.231-2.484,0.032-3.674,0.358
	c-3.796,0.173-7.65-0.57-11.401,0.045c-7.397,5.031-8.369,8.566-8.623,11.503c2.374,7.525,28.768,33.456,34.062,38.524
	c2.357,5.018,32.204,28.656,33.204,29.024c0.339,0.672,0.691,1.376,1.05,2.074c-0.25,0.448-0.493,0.903-0.73,1.37
	c-1.76-2.996-5.96-2.298-8.162-4.724c-0.96-1.075-2.58-0.928-3.745-1.69c0.019-0.646,0.038-1.274,0.058-1.895
	c-0.64,0.442-1.28,0.903-1.908,1.383c-1.396-1.645-4.487-3.022-5.684-0.48c0.698,0.064,1.408,0.147,2.119,0.237
	c0.224,0.839,0.455,1.684,0.691,2.548c0.672-0.109,1.351-0.192,2.036-0.275c-0.026,0.294-0.077,0.877-0.102,1.171
	c1.28,0.416,2.631,0.467,3.95,0.192c-0.058,0.378-0.109,0.775-0.16,1.178c6.203,3.496,5.269,1.103,14.019,7.144
	c0.327-0.704,0.653-1.383,0.979-2.061c0.109,0.723,0.224,1.46,0.346,2.209c1.408,0.621,2.797,1.287,4.186,1.959
	c0.173-0.25,0.519-0.762,0.691-1.018c2.074,1.588,4.385,2.887,6.241,4.763c0.871,0.691,1.594,1.709,2.689,2.074
	c2.535,4.11,7.317,7.054,12.048,7.592c4.634,2.542,10.022,1.884,13.667,6.209c0.851,2.337,2.631,4.187,3.591,6.465
	c0.647,2.9-2.151,4.635-3.489,6.779c-1.357,1.223-0.935,3.463-0.858,5.134c0.397,3.559,4.884,3.822,6.44,6.549
	c-0.032,4.046-4.436,6.753-4.206,10.927c-1.748,1.984-0.519,4.942-0.538,7.33c2.253,1.018,4.622,0.083,6.914-0.243
	c3.61-0.602,7.266,0.115,10.895-0.198c1.85,0.499,3.777,0.41,5.678,0.454c3.028,1.178,7.637,0.333,9.103,3.982l-0.551,0.173
	c-0.384,0.813-0.749,1.632-1.088,2.484c-0.738,0.485-5.109,4.357-5.697,4.878c-0.384,0.141-1.146,0.416-1.53,0.551
	c-2.144,1.592-8.718,7.494-8.386,8.994c0.915,1.191,2.023,2.228,3.143,3.233c-1.018,0.352-1.997,0.8-2.989,1.235
	c-0.173,0.442-0.512,1.319-0.685,1.754c-0.307-0.595-0.832-0.909-1.581-0.941c0.282,0.525,0.57,1.056,0.871,1.6
	c-0.776,3.615-1.88,3.55,3.796,5.614c0.038,0.749-0.23,1.658,0.455,2.221c0.775-0.205,1.53-0.474,2.292-0.717l-0.333-0.397
	c0.96-0.429,1.978-0.755,3.047-0.685c2.855,1.37,6.747,0.64,9.007,3.367c-1.043,1.908-2.548,3.489-3.898,5.179
	c-9.549,7.554-3.311,9.061-10.985,16.612c-0.224-0.051-0.666-0.16-0.883-0.211c0.845,1.722,1.159,3.604,1.543,5.48
	c1.454,2.638,2.874-1.36,16.855-3.393c0.749,2.132-0.154,4.225-0.877,6.229c-0.442,0.595-0.903,1.204-1.159,1.927
	c-2.708,3.124-9.118,18,0.096,20.625l0.179,0.429c6.968,4.774,12.107,8.953,12.764,9.583c1.069,2.266,0.064,4.833-0.147,7.208
	c-4.336,7.419-9.434,24.848-6.395,33.428c5.116,0.31,11.981-7.461,12.745-8.475c3.156-2.285,5.62-5.71,9.628-6.587
	c1.491,3.177-1.109,6.227-3.393,10.069c-1.757,1.933-7.078,16.72-7.502,17.726c-0.467,1.504-1.69,3.905,0.262,4.878
	c2.751,0.209,21.629-7.122,22.751-7.586c2.125-0.237,4.276-0.269,6.395,0.09c-0.327,1.428-0.768,2.83-1.229,4.238l-0.384-0.09
	c-3.036,5.966-7.843,9.868-4.238,19.134c2.305,3.188,5.966,5.012,9.609,6.273c2.745,0.996,9.486-1.373,10.959-2.74
	c0.999-0.358,1.991-0.755,2.996-1.101c0.096,0.429,0.294,1.293,0.391,1.728c-4.062,6.413-11.879,11.847-6.261,15.767
	c0.424,0.039,24.262-0.031,24.345-0.032l0.57-0.339c0.006,0.954,0.115,1.927,0.371,2.874c-2.484,3.674-3.418,8.379-3.374,12.771
	c6.184,0.205,12.566,0.461,18.481-1.703l0.134-0.512c1.28-0.147,2.554-0.352,3.834-0.519c0.877,1.53,0.743,3.335,0.704,5.057
	c-2.841,6.529-4.151,7.078-4.334,8.892c-0.787,1.001-6.043,10.333-5.729,12.86c0.882,6.635,12.534,4.937,15.44,3.943
	c2.909-0.705,5.652-3.424,8.821-1.927c1.581,1.331,3.764,0.442,5.524,1.338c0.026,0.743,0.058,1.504,0.09,2.279
	c-0.807,1.146-1.984,2.016-2.612,3.297c-24.696,23.973,8.477,26.373,12.425,23.724c0.25-0.006,0.743-0.013,0.992-0.013l-0.006-0.493
	c0.672,0.135,1.344,0.294,2.029,0.48c4.807,9.577,12.772,9.05,15.869,9.858c3.124,0.871,6.088-0.839,8.719-2.311
	c4.385-0.55,8.764,1.076,13.11,0.154c1.773-0.083,3.559-0.096,5.345-0.013c-0.974,2.514-7.246,11.004-0.909,13.129
	c11.787,2.262,34.695-17.866,35.771-11.407c0.538,2.131-1.421,3.77-1.696,5.761c-1.6,1.972-2.708,4.43-2.202,7.022
	c2.196,1.06,4.122,0.562,24.409-6.722l-0.006-0.442c0.57-0.006,1.722-0.026,2.298-0.039l-0.352-0.403
	c2.612-1.043,5.441-1.581,7.919-2.919c0.89-0.198,1.888-0.205,2.657-0.781c3.252-0.736,6.286-2.311,9.628-2.695
	c-0.787,2.151-2.977,3.182-4.391,4.859c-1.632,1.863-3.079,3.931-4.071,6.209c-3.213,3.776-2.084,13.568,5.172,12.425
	c9.887-1.116,19.115-7.554,28.666-10.242c0.173-0.154,0.518-0.467,0.691-0.621c2.716-0.865,21.163-9.481,21.163-9.481
	c-0.685,1.043-1.408,2.061-2.093,3.124c-2.95,0.688-18.113,22.529-12.355,25.715c7.166,0.453,17.825-6.889,24.057-10.55
	c1-0.352,11.74-4.431,12.713-5.307c2.144,0.25,4.346,0.166,6.465,0.71c-1.069,6.042-4.975,8.943-7.605,9.788
	c0.128,0.615,0.262,1.248,0.41,1.901c0.403-0.147,1.21-0.442,1.613-0.589c-0.314,0.967-0.666,1.933-0.871,2.958
	c-1.088,1.588-1.671,3.438-1.914,5.345l-0.384,0.013c0.134,1.364-0.768,3.271,0.64,4.193c3.246-0.288,5.806-2.503,8.488-4.129
	c0.339,0.493,0.685,1.005,1.037,1.53c5.313-1.511,9.039-5.947,13.757-8.597c0.109-0.281,0.326-0.839,0.435-1.12
	c0.717-0.141,1.658,0.019,2.202-0.563c1.728-2.26,4.814-2.727,6.683-4.871c1.594-1.792,5.108-2.272,5.006-5.147
	c1.197-0.019,2.177,0.544,2.945,1.472c-0.595,0.781-1.178,1.575-1.754,2.381c1.235,2.657,3.892,0.16,5.089-1.248
	c-0.76,3.476,0.999,4.419,2.042,5.115c2.893,0.922,5.972-0.25,8.93-0.403l-0.371-0.167c0.243-0.23,0.736-0.685,0.986-0.909
	c8.582-0.373,21.472-7.649,22.597-9.064c0.685-0.026,1.331-0.205,1.94-0.519c1.421-0.089,2.829,0.205,4.257,0.333
	c1.043-0.269,1.844-1.14,2.772-1.658c-0.576,1.824-1.991,3.213-2.638,5.012c0.359,1.261,0.589,2.573,0.73,3.905
	c-0.749-0.301-1.485-0.589-2.215-0.851c0.455,0.704,0.935,1.421,1.427,2.151c1.523-0.378,2.855-1.133,3.418-2.675
	c0.478-1.308,7.61-3.092,8.906-3.76c9.103,4.012,23.665,44.49,26.755,62.987c9.502,56.889-6.711,70.11-8.268,77.526
	c-2.426,1.748-6.338,10.703-7.72,12.675c-2.33,3.45-4.577,6.965-6.843,10.46c-1.28,2.068-3.694,3.438-4.155,5.973l0.397,0.448
	c-2.157,0.019-2.516,2.804-3.546,4.283c-2.964,4.667-1.626,10.172-1.568,15.338c0.807-0.813,1.543-1.684,2.317-2.509
	c2.977-0.219,7.211-3.767,9.826-6.811c2.413-0.602,4.609,0.327,6.427,1.901c2.509,2.33,6.004,1.018,9.013,0.8
	c14.53-3.837,16.906-24.123,27.827-29.671c0.999,0.864,1.792,1.933,2.625,2.983c0.544,3.127,8.318,20.477,8.917,21.477l-0.25,0.378
	c1.451,3.246,6.582,19.17,9.154,22.283c1.068,3.258,7.074,11.145,7.951,12.227c-0.308,5.619,3.77,31.857,32.647,55.36
	c4.603,3.975,11.222,5.012,15.095,9.948c0.462,2.516,6.589,9.118,10.581,10.127c2.04-16.475-2.769-18.575-1.861-32.355
	c10.887-14.311-8.511-22.189-16.534-58.825c-1.633-7.456-5.562-20.574-1.589-27.544c2.941-5.159,3.786-0.848,7.43-0.157
	c3.278,0.621,5.697,3.201,9.026,3.7c2.221,3.271,5.518,5.627,7.727,8.918c1.275,2.151,4.479,3.839,6.222,6.025
	c10.167,7.191,22.662,11.033,35.113,10.798c18.736-0.354,12.72,4.654,22.591,10.357c14.254,8.234,34.034,8.453,49.604,4.291
	c14.43-3.857,14.301-16.453,38.663-9.681c-0.679-3.265-3.066-5.729-5.512-7.81c-1.895-1.491-4.776-0.794-6.478-2.541
	c-0.89-0.979-2.26-1.172-3.418-1.626c-1.02-4.754-13.502-5.953-18.583-5.294c-7.937-1.604-3.443,2.267-26.003-5.851
	c-1.133-0.301-2.272-1.236-3.431-0.935c-4.961-2.996-10.947-4.026-15.716-7.407c-3.412-2.617-29.832-9.497-30.349-12.784
	c7.664-0.487,18.341,0.987,30.964-4.347c2.548-1.85,5.083-3.899,8.296-4.436c0.16-0.205,0.474-0.614,0.634-0.819
	c4.692-0.871,9.295,0.851,13.994,0.378c9.43-0.207,5.993,0.86,10.799,2.887c-3.121-9.258-9.332-11.846-16.048-17.896
	c-4.644-4.184-8.092-4.321-13.879-4.783c-17.069-1.364-33.69-4.183-51.113-0.757c-2.469,0.485-11.218,6.038-15.072,3.932
	c-9.078-4.961-23.773-6.489-31.204-18.631c-2.398-3.918-2.123-8.566-5.448-12.438c-37.972-89.56-43.569-76.374-62.833-118.302
	c-0.506-0.928-0.999-1.844-1.575-2.682c0.352-1.37,0.832-2.689,1.44-3.95c-0.512-0.397-1.018-0.781-1.511-1.152
	c3.986-1.213,3.902-3.293,17.335-6.517c1.895-0.448,3.489-1.722,5.409-2.106c0.831-0.249,1.827-0.301,2.386-1.07
	c-0.726,1,13.079,2.639,34.557-1.668c13.88-7.939,21.686-7.249,28.063-15.141c0.589-0.493,1.197-0.96,1.844-1.376
	c1.002,0.371,9.024,3.301,10.383,3.47c9.366,7.431,35.011,7.626,46.614,9.604c-0.401,0.742-0.802,1.483-1.203,2.225
	c6.044,0.116,17.557,4.21,19.206,11.106c1.488,6.226-16.192,33.856-22.355,39.864c-3.796,3.7-5.256,8.917-6.92,13.776
	c-0.704,1.959-0.378,4.084-0.627,6.126c-0.986,1.697-0.89,3.777-1.299,5.665c4.282-3.046,3.286-2.168,4.628-6.574
	c2.144-0.205,4.135-1.063,6.165-1.728c10.745-2.786,26.832,9.212,37.335-15.5c8.337-19.617-6.69-14.276,47.71-27.224
	c-0.13-0.672-0.26-1.343-0.39-2.015c-1.294,0.274-2.589,0.547-3.882,0.821c2.85-3.218,11.95-6.078,15.922-5.789
	c1.94,0.141,4.058,0.442,5.781-0.73c1.703,0.576,3.527,0.883,5.109,1.818c1.811,1.581,3.822,3.425,6.35,3.572
	c2.183,0.166,3.7,2.17,5.947,2.119c1.775,0.172,22.916,5.61,30.042,10.069c0.435,1.953,3.015,2.407,3.271,4.507
	c1.229,0.928,2.407,1.94,3.457,3.105c0.64,0.089,1.293,0.198,1.959,0.32c-0.364,0.402-0.715,0.824-1.053,1.257
	c2.05-2.091,41.359,21,45.638,23.191c-0.896,0.313-1.53,0.363-2.116,1.133c6.744,4.323,15.432,4.874,21.972,9.146
	c15.823,10.336,23.51,18.361,42.68,11.805c5.641-0.292,9.277,8.273,12.368,11.068c0.832-18.394,2.336-3.915-3.866-18.968
	c-1.844-3.995-1.844-8.821-4.846-12.259c-0.951-1.002-12.416-10.898-16.49-13.014c-1.966-2.122-9.302-7.337-13.738-8.034
	c-1.172-0.848-52.089-23.286-47.514-32.902c1.67-3.509,6.738-0.37,11.194,1.171c4.016,1.388,12.539,3.466,14.549,4.34
	c-0.032,2.868,2.983,3.988,5.39,4.084c3.713,0.282,7.336,1.927,11.083,1.478c5.243-1.604,16.087,1.264,21.839,1.681
	c-1.12,0.304-2.24,0.607-3.359,0.911c7.564,6.809,11.086,11.905,22.056,12.215c2.453,0.069,4.982,0.141,7.227,1.141
	c1.267,0.566,9.03,8.992,8.926,10.221c0.609-7.179,2.856-7.367-1.108-14.244c-0.559-2.304,0.66-29.305-28.166-37.749
	c-4.34-1.568-8.642-3.233-12.843-5.11c-8.258-5.485-18.232-7.118-27.238-10.919c-11.645-4.915-20.654-17.447-32.595-20.924
	c-9.136-2.66-19.011-3.828-28.344-5.708c1.026,0.848,2.053,1.695,3.079,2.542c-20.053-16.557-45.698-20.708-70.908-19.378
	c0.396-0.982,0.792-1.964,1.188-2.946c-53.835-7.11-57.471-7.725-66.317-8.269c-2.663-0.164-16.295,2.538-17.183,1.25
	c1.237-1.626,4.478-5.378,4.391-6.625c2.582-46.764-0.399-32.58,28.993-81.881c0.367,0.855,0.734,1.71,1.101,2.565
	c3.789-3.35,7.578-6.699,11.366-10.049c-2.317-0.109-3.718,3.424-1.957,4.933c1.219,1.044,5.07,2.006,7.502-5.386
	c-0.242,1.759-0.484,3.517-0.726,5.276c-0.738,0.358-1.476,0.715-2.215,1.073c-0.361,4.872-0.722,9.745-1.083,14.617
	c0-4.047,9.954-12.222,12.158-15.86c6.789-11.203,9.417-21.661,20.637-30.111c-1.542,0.47-3.085,0.939-4.627,1.409
	c5.283-1.609,9.793-7.516,14.163-10.646c8.539-6.116,19.489-7.58,29.064-11.36c13.935-5.5,24.297-14.693,36.612-22.697
	c63.037-40.971,120.492-61.008,174.395-94.81c59.033-37.02,121.772-99.586,143.134-165.642
	c69.115-213.724,41.22-292.123-13.689-398.056c2.927,2.635,5.854,5.269,8.781,7.904c-0.212-0.827-0.423-1.654-0.635-2.481
	c2.188,2.288,4.377,4.577,6.565,6.865c-1.26-1.318-4.505,9.75,26.439,8.971c35.436-0.892,58.598-55.103,43.788-100.787
	c-4.178-12.886-17.7-29.986-18.226-30.987c-0.211-1.088-0.013-2.183,0.102-3.265c0.704-0.205,1.178-0.832,1.76-1.287
	c7.401-5.945,1.946-5.073,10.972-5.979c0.064,0.154,0.198,0.467,0.269,0.627c1.408,0.186,2.842,0.166,4.282,0.282
	c0,0,0.184-0.386,0.186-0.39c-0.655,1.376,27.151,3.75,28.994,3.864c14.227,0.882,27.094,4.344,40.849,0.7
	C1677.674,289.86,1667.194,279.533,1656.776,271.622z"/>
</svg>
